<svg xmlns="http://www.w3.org/2000/svg" xmlns:xlink="http://www.w3.org/1999/xlink" width="2000" zoomAndPan="magnify" viewBox="0 0 1500 1499.999933" height="2000" preserveAspectRatio="xMidYMid meet" version="1.0"><defs><clipPath id="08be855496"><path d="M 95 49 L 1405.8125 49 L 1405.8125 1452.273438 L 95 1452.273438 Z M 95 49 " clip-rule="nonzero"/></clipPath></defs><g clip-path="url(#08be855496)"><path fill="#436ceb" d="M 1404.972656 639 C 1404.308594 622.289062 1404.308594 604.917969 1403.636719 588.207031 C 1402.300781 544.761719 1400.292969 500.652344 1398.289062 454.539062 C 1397.621094 434.484375 1396.285156 414.433594 1394.949219 393.714844 L 1392.941406 363.636719 C 1390.269531 327.546875 1369.550781 298.808594 1335.464844 284.773438 L 828.183594 74.910156 C 814.820312 68.894531 800.785156 62.878906 786.746094 57.535156 C 770.707031 50.179688 753.996094 47.507812 739.296875 50.179688 C 729.222656 51.441406 719.640625 54.335938 710.558594 58.871094 L 165.179688 284.773438 C 131.761719 298.808594 110.375 328.21875 107.703125 363.636719 C 105.695312 393.046875 104.359375 421.785156 103.023438 451.191406 C 101.683594 489.289062 99.683594 526.714844 98.34375 564.8125 C 98.34375 571.5 97.675781 578.179688 97.675781 584.863281 C 95.671875 664.398438 94.332031 753.957031 99.011719 842.851562 C 101.019531 879.609375 103.691406 918.375 113.050781 957.136719 C 121.070312 993.230469 134.4375 1029.988281 152.480469 1069.417969 C 187.234375 1144.273438 237.363281 1214.453125 298.179688 1272.601562 C 304.199219 1277.945312 310.878906 1283.960938 317.566406 1289.976562 C 401.109375 1364.164062 501.363281 1414.960938 607.628906 1437.679688 C 654.121094 1447.523438 701.128906 1452.425781 748.648438 1452.386719 C 828.851562 1452.386719 908.386719 1437.679688 981.910156 1408.941406 C 1092.851562 1365.503906 1191.101562 1294.652344 1265.289062 1203.089844 C 1336.132812 1114.871094 1380.914062 1017.289062 1394.28125 920.375 C 1403.640625 854.210938 1405.640625 788.714844 1405.640625 719.871094 C 1405.640625 693.136719 1405.640625 666.402344 1404.972656 639 Z M 1261.949219 901.664062 C 1251.921875 974.511719 1217.164062 1050.039062 1161.027344 1118.878906 C 1101.542969 1192.398438 1023.34375 1249.207031 933.785156 1283.960938 C 842.21875 1320.050781 735.953125 1328.070312 635.703125 1306.6875 C 551.488281 1289.308594 471.953125 1248.539062 406.453125 1190.390625 C 400.441406 1185.714844 395.761719 1180.367188 390.414062 1175.6875 C 342.292969 1129.570312 301.527344 1073.429688 274.121094 1013.277344 C 259.417969 982.535156 249.390625 953.792969 243.375 927.058594 C 236.691406 899.660156 234.019531 870.917969 232.015625 835.496094 C 227.335938 749.949219 229.34375 662.394531 232.015625 584.863281 L 232.015625 569.492188 C 233.351562 530.0625 235.355469 490.625 237.363281 451.191406 C 238.03125 433.820312 238.699219 415.773438 240.035156 398.394531 L 750.65625 187.195312 C 759.34375 190.535156 767.367188 193.878906 775.386719 197.21875 L 1261.277344 398.394531 L 1261.277344 401.734375 C 1262.613281 419.78125 1263.28125 437.160156 1263.949219 454.535156 C 1266.625 501.320312 1268.628906 545.433594 1269.96875 588.207031 C 1270.636719 606.25 1271.300781 623.628906 1271.300781 641.007812 C 1272.640625 735.242188 1273.308594 820.125 1261.949219 901.664062 Z M 1261.949219 901.664062 " fill-opacity="1" fill-rule="nonzero"/></g><path fill="#436ceb" d="M 1139.636719 692.46875 C 1138.96875 657.046875 1137.632812 622.289062 1135.628906 587.539062 C 1135.628906 578.179688 1134.960938 568.824219 1134.289062 559.464844 L 1132.953125 538.082031 C 1130.949219 524.042969 1126.269531 510.675781 1120.257812 501.988281 C 1109.5625 483.945312 1092.183594 470.578125 1072.804688 463.890625 L 1048.074219 453.867188 L 806.800781 353.613281 C 797.441406 349.605469 787.414062 345.59375 777.390625 342.25 C 747.316406 331.558594 723.921875 341.585938 715.230469 345.59375 L 457.25 451.859375 L 423.832031 465.898438 C 391.082031 479.265625 369.695312 508.003906 367.691406 542.757812 C 367.023438 556.792969 366.355469 571.5 365.683594 585.53125 C 364.347656 607.589844 363.683594 629.644531 363.011719 651.699219 C 361.007812 697.8125 359.671875 750.617188 363.011719 803.414062 C 364.347656 824.804688 365.683594 848.195312 371.703125 871.589844 C 376.382812 893.640625 384.402344 915.699219 395.761719 939.757812 C 401.53125 952.066406 407.910156 964.054688 414.898438 975.714844 C 421.886719 987.375 429.453125 998.648438 437.59375 1009.539062 C 445.730469 1020.429688 454.402344 1030.875 463.605469 1040.882812 C 472.8125 1050.886719 482.5 1060.398438 492.671875 1069.417969 C 542.800781 1113.53125 602.285156 1143.609375 665.105469 1156.972656 C 693.847656 1162.988281 721.917969 1166.332031 749.988281 1166.332031 C 773.410156 1166.351562 796.636719 1164.226562 819.667969 1159.960938 C 842.695312 1155.691406 865.140625 1149.347656 887 1140.933594 C 903.375 1134.664062 919.277344 1127.363281 934.703125 1119.027344 C 950.128906 1110.691406 964.949219 1101.386719 979.164062 1091.121094 C 993.378906 1080.855469 1006.867188 1069.710938 1019.632812 1057.6875 C 1032.394531 1045.667969 1044.328125 1032.867188 1055.425781 1019.292969 C 1098.199219 966.492188 1124.933594 907.679688 1133.621094 849.53125 C 1138.96875 812.773438 1140.308594 775.34375 1140.308594 737.917969 C 1140.308594 723.210938 1139.636719 707.839844 1139.636719 692.46875 Z M 1001.289062 830.820312 C 995.941406 864.902344 979.230469 900.996094 951.832031 935.082031 C 944.417969 944.171875 936.433594 952.734375 927.882812 960.761719 C 919.332031 968.792969 910.289062 976.222656 900.75 983.050781 C 891.210938 989.878906 881.265625 996.046875 870.90625 1001.554688 C 860.550781 1007.0625 849.875 1011.859375 838.878906 1015.949219 C 794.101562 1033.328125 742.636719 1037.339844 693.179688 1026.648438 C 652.410156 1017.957031 614.3125 997.90625 581.5625 969.164062 C 554.160156 945.773438 532.105469 915.699219 516.734375 882.949219 C 509.382812 867.578125 504.703125 854.210938 502.03125 841.511719 C 498.6875 827.476562 497.351562 811.433594 496.683594 796.0625 C 493.34375 748.609375 494.675781 701.160156 496.015625 655.707031 C 497.351562 632.316406 498.015625 608.925781 499.355469 585.53125 L 499.355469 579.519531 L 750.65625 475.257812 C 751.324219 475.921875 751.996094 475.921875 753.328125 475.921875 L 1001.289062 579.519531 C 1001.289062 582.191406 1001.957031 584.863281 1001.957031 587.539062 C 1003.960938 622.960938 1005.300781 659.054688 1005.96875 694.472656 C 1006.636719 743.929688 1007.304688 788.042969 1001.289062 830.820312 Z M 1001.289062 830.820312 " fill-opacity="1" fill-rule="nonzero"/></svg>