<svg xmlns="http://www.w3.org/2000/svg" xmlns:xlink="http://www.w3.org/1999/xlink" viewBox="88 522 1310 404" width="1310" height="404" preserveAspectRatio="xMidYMid meet" version="1.0"><defs><g/><clipPath id="668a4a9c83"><path d="M 88 522.320312 L 464 522.320312 L 464 925.820312 L 88 925.820312 Z M 88 522.320312 " clip-rule="nonzero"/></clipPath></defs><g clip-path="url(#668a4a9c83)"><path fill="#436ceb" d="M 463.738281 692.078125 C 463.546875 687.285156 463.546875 682.296875 463.355469 677.5 C 462.972656 665.03125 462.394531 652.375 461.820312 639.136719 C 461.628906 633.382812 461.246094 627.628906 460.863281 621.679688 L 460.285156 613.046875 C 459.519531 602.691406 453.574219 594.441406 443.789062 590.414062 L 298.195312 530.179688 C 294.359375 528.457031 290.332031 526.730469 286.304688 525.195312 C 281.699219 523.085938 276.90625 522.316406 272.683594 523.085938 C 269.792969 523.445312 267.042969 524.277344 264.4375 525.578125 L 107.910156 590.414062 C 98.320312 594.441406 92.179688 602.882812 91.414062 613.046875 C 90.835938 621.488281 90.453125 629.738281 90.070312 638.175781 C 89.6875 649.113281 89.113281 659.851562 88.726562 670.789062 C 88.726562 672.707031 88.535156 674.625 88.535156 676.542969 C 87.960938 699.367188 87.578125 725.074219 88.917969 750.585938 C 89.496094 761.136719 90.261719 772.261719 92.949219 783.386719 C 95.25 793.746094 99.085938 804.296875 104.265625 815.613281 C 114.238281 837.097656 128.625 857.238281 146.082031 873.925781 C 147.808594 875.460938 149.726562 877.1875 151.644531 878.914062 C 175.625 900.207031 204.398438 914.785156 234.894531 921.308594 C 248.238281 924.132812 261.730469 925.539062 275.371094 925.527344 C 298.390625 925.527344 321.214844 921.308594 342.316406 913.058594 C 374.160156 900.589844 402.355469 880.257812 423.648438 853.976562 C 443.980469 828.65625 456.832031 800.652344 460.671875 772.835938 C 463.355469 753.847656 463.929688 735.046875 463.929688 715.289062 C 463.929688 707.617188 463.929688 699.945312 463.738281 692.078125 Z M 422.691406 767.464844 C 419.8125 788.375 409.835938 810.050781 393.726562 829.808594 C 376.652344 850.910156 354.210938 867.210938 328.503906 877.1875 C 302.226562 887.546875 271.726562 889.847656 242.953125 883.710938 C 218.785156 878.722656 195.957031 867.023438 177.15625 850.332031 C 175.429688 848.992188 174.089844 847.457031 172.554688 846.113281 C 158.742188 832.878906 147.042969 816.761719 139.175781 799.5 C 134.957031 790.675781 132.078125 782.429688 130.351562 774.753906 C 128.433594 766.890625 127.667969 758.640625 127.089844 748.476562 C 125.75 723.921875 126.324219 698.792969 127.089844 676.542969 L 127.089844 672.128906 C 127.476562 660.8125 128.050781 649.496094 128.625 638.175781 C 128.820312 633.191406 129.011719 628.011719 129.394531 623.023438 L 275.945312 562.410156 C 278.441406 563.367188 280.742188 564.328125 283.042969 565.285156 L 422.5 623.023438 L 422.5 623.984375 C 422.882812 629.164062 423.074219 634.148438 423.265625 639.136719 C 424.03125 652.5625 424.609375 665.226562 424.992188 677.5 C 425.183594 682.679688 425.375 687.667969 425.375 692.65625 C 425.757812 719.703125 425.949219 744.0625 422.691406 767.464844 Z M 422.691406 767.464844 " fill-opacity="1" fill-rule="nonzero"/></g><path fill="#436ceb" d="M 387.585938 707.425781 C 387.394531 697.257812 387.011719 687.285156 386.433594 677.308594 C 386.433594 674.625 386.242188 671.9375 386.050781 669.253906 L 385.667969 663.113281 C 385.09375 659.085938 383.75 655.25 382.023438 652.757812 C 378.953125 647.578125 373.964844 643.742188 368.402344 641.820312 L 361.308594 638.945312 L 292.058594 610.171875 C 289.375 609.019531 286.496094 607.871094 283.621094 606.910156 C 274.988281 603.839844 268.273438 606.71875 265.777344 607.871094 L 191.734375 638.371094 L 182.144531 642.398438 C 172.746094 646.234375 166.605469 654.484375 166.03125 664.457031 C 165.839844 668.484375 165.648438 672.707031 165.457031 676.734375 C 165.070312 683.0625 164.882812 689.394531 164.6875 695.722656 C 164.113281 708.960938 163.730469 724.113281 164.6875 739.269531 C 165.070312 745.40625 165.457031 752.121094 167.183594 758.835938 C 168.527344 765.164062 170.828125 771.492188 174.089844 778.398438 C 177.40625 785.484375 181.410156 792.160156 186.09375 798.425781 C 190.777344 804.695312 196.046875 810.421875 201.902344 815.613281 C 216.289062 828.273438 233.363281 836.90625 251.390625 840.742188 C 259.640625 842.46875 267.699219 843.425781 275.753906 843.425781 C 282.476562 843.433594 289.140625 842.824219 295.753906 841.597656 C 302.363281 840.375 308.804688 838.554688 315.078125 836.136719 C 319.777344 834.339844 324.339844 832.242188 328.769531 829.851562 C 333.195312 827.457031 337.449219 824.789062 341.527344 821.839844 C 345.609375 818.894531 349.480469 815.695312 353.144531 812.246094 C 356.808594 808.796875 360.230469 805.121094 363.417969 801.226562 C 375.695312 786.074219 383.367188 769.191406 385.859375 752.503906 C 387.394531 741.953125 387.777344 731.210938 387.777344 720.46875 C 387.777344 716.25 387.585938 711.835938 387.585938 707.425781 Z M 347.878906 747.132812 C 346.34375 756.914062 341.546875 767.273438 333.683594 777.058594 C 329.410156 782.296875 324.523438 786.886719 319.023438 790.824219 C 313.523438 794.761719 307.605469 797.910156 301.265625 800.265625 C 288.414062 805.253906 273.644531 806.40625 259.449219 803.335938 C 247.75 800.84375 236.816406 795.089844 227.414062 786.839844 C 219.550781 780.125 213.21875 771.492188 208.808594 762.09375 C 206.699219 757.683594 205.355469 753.847656 204.589844 750.203125 C 203.628906 746.171875 203.246094 741.570312 203.054688 737.15625 C 202.09375 723.539062 202.476562 709.917969 202.863281 696.875 C 203.246094 690.160156 203.4375 683.449219 203.820312 676.734375 L 203.820312 675.007812 L 275.945312 645.082031 C 276.136719 645.273438 276.328125 645.273438 276.710938 645.273438 L 347.878906 675.007812 C 347.878906 675.773438 348.070312 676.542969 348.070312 677.308594 C 348.644531 687.476562 349.03125 697.835938 349.222656 708 C 349.414062 722.195312 349.605469 734.855469 347.878906 747.132812 Z M 347.878906 747.132812 " fill-opacity="1" fill-rule="nonzero"/><g fill="#436ceb" fill-opacity="1"><g transform="translate(505.415264, 770.812426)"><g><path d="M 54.015625 1.765625 C 44.960938 1.765625 36.566406 -0.269531 28.828125 -4.34375 C 21.097656 -8.414062 14.925781 -14.203125 10.3125 -21.703125 C 5.695312 -29.210938 3.390625 -37.8125 3.390625 -47.5 C 3.390625 -57.175781 5.695312 -65.769531 10.3125 -73.28125 C 14.925781 -80.789062 21.097656 -86.578125 28.828125 -90.640625 C 36.566406 -94.710938 44.960938 -96.75 54.015625 -96.75 C 62.242188 -96.75 69.816406 -95.117188 76.734375 -91.859375 C 83.660156 -88.609375 89.453125 -84.019531 94.109375 -78.09375 C 98.765625 -72.164062 101.863281 -65.359375 103.40625 -57.671875 L 78.984375 -57.671875 C 77.347656 -62.648438 74.335938 -66.789062 69.953125 -70.09375 C 65.566406 -73.394531 60.253906 -75.046875 54.015625 -75.046875 C 49.035156 -75.046875 44.53125 -73.84375 40.5 -71.4375 C 36.476562 -69.039062 33.3125 -65.757812 31 -61.59375 C 28.695312 -57.4375 27.546875 -52.738281 27.546875 -47.5 C 27.546875 -42.25 28.695312 -37.539062 31 -33.375 C 33.3125 -29.21875 36.476562 -25.941406 40.5 -23.546875 C 44.53125 -21.148438 49.035156 -19.953125 54.015625 -19.953125 C 60.253906 -19.953125 65.566406 -21.601562 69.953125 -24.90625 C 74.335938 -28.207031 77.347656 -32.34375 78.984375 -37.3125 L 103.40625 -37.3125 C 101.863281 -29.625 98.765625 -22.816406 94.109375 -16.890625 C 89.453125 -10.960938 83.660156 -6.367188 76.734375 -3.109375 C 69.816406 0.136719 62.242188 1.765625 54.015625 1.765625 Z M 54.015625 1.765625 "/></g></g></g><g fill="#436ceb" fill-opacity="1"><g transform="translate(607.590636, 770.812426)"><g><path d="M 67.84375 0 L 8.828125 0 L 8.828125 -94.984375 L 32.5625 -94.984375 L 32.5625 -21.71875 L 67.84375 -21.71875 Z M 67.84375 0 "/></g></g></g><g fill="#436ceb" fill-opacity="1"><g transform="translate(674.214882, 770.812426)"><g><path d="M 96.34375 0 L 70.96875 0 L 61.875 -26.46875 L 33.921875 -26.46875 L 24.828125 0 L 0 0 L 35.828125 -94.984375 L 60.53125 -94.984375 Z M 47.90625 -67.3125 L 34.875 -29.171875 L 60.9375 -29.171875 Z M 47.90625 -67.3125 "/></g></g></g><g fill="#436ceb" fill-opacity="1"><g transform="translate(766.62048, 770.812426)"><g><path d="M 33.25 0 L 9.5 0 L 9.5 -94.984375 L 33.25 -94.984375 Z M 33.25 0 "/></g></g></g><g fill="#436ceb" fill-opacity="1"><g transform="translate(805.42801, 770.812426)"><g><path d="M 109.640625 -94.984375 L 123.484375 0 L 99.46875 0 L 90.25 -70.84375 L 65.953125 0 L 59.171875 0 L 34.609375 -57.265625 L 27.140625 0 L 4.078125 0 L 17.90625 -94.984375 L 39.21875 -94.984375 L 70.4375 -22.125 L 95.53125 -94.984375 Z M 109.640625 -94.984375 "/></g></g></g><g fill="#436ceb" fill-opacity="1"><g transform="translate(929.042638, 770.812426)"><g><path d="M 104.078125 -48.171875 L 104.078125 -47.21875 C 104.078125 -38 102.019531 -29.65625 97.90625 -22.1875 C 93.789062 -14.71875 87.957031 -8.859375 80.40625 -4.609375 C 72.851562 -0.359375 64.054688 1.765625 54.015625 1.765625 C 44.960938 1.765625 36.566406 -0.269531 28.828125 -4.34375 C 21.097656 -8.414062 14.925781 -14.203125 10.3125 -21.703125 C 5.695312 -29.210938 3.390625 -37.8125 3.390625 -47.5 C 3.390625 -57.175781 5.695312 -65.769531 10.3125 -73.28125 C 14.925781 -80.789062 21.097656 -86.578125 28.828125 -90.640625 C 36.566406 -94.710938 44.960938 -96.75 54.015625 -96.75 C 62.148438 -96.75 69.675781 -95.117188 76.59375 -91.859375 C 83.519531 -88.609375 89.3125 -84.175781 93.96875 -78.5625 C 98.632812 -72.957031 101.828125 -66.671875 103.546875 -59.703125 L 78.84375 -59.703125 C 77.21875 -63.597656 74.234375 -67.128906 69.890625 -70.296875 C 65.546875 -73.460938 60.253906 -75.046875 54.015625 -75.046875 C 49.128906 -75.046875 44.691406 -73.890625 40.703125 -71.578125 C 36.722656 -69.273438 33.554688 -66.066406 31.203125 -61.953125 C 28.859375 -57.835938 27.640625 -53.242188 27.546875 -48.171875 Z M 54.015625 -19.953125 C 61.796875 -19.953125 67.988281 -22.210938 72.59375 -26.734375 C 77.207031 -31.253906 79.648438 -37.492188 79.921875 -45.453125 L 27.546875 -45.453125 C 27.816406 -40.566406 29.148438 -36.179688 31.546875 -32.296875 C 33.941406 -28.410156 37.109375 -25.378906 41.046875 -23.203125 C 44.984375 -21.035156 49.304688 -19.953125 54.015625 -19.953125 Z M 54.015625 -19.953125 "/></g></g></g><g fill="#436ceb" fill-opacity="1"><g transform="translate(1032.574902, 770.812426)"><g><path d="M 47.765625 1.765625 C 39.535156 1.765625 32.390625 0.0898438 26.328125 -3.25 C 20.265625 -6.601562 15.601562 -11.265625 12.34375 -17.234375 C 9.09375 -23.203125 7.46875 -30.078125 7.46875 -37.859375 L 7.46875 -94.984375 L 31.21875 -94.984375 L 31.21875 -39.21875 C 31.21875 -33.425781 32.59375 -28.765625 35.34375 -25.234375 C 38.101562 -21.710938 42.242188 -19.953125 47.765625 -19.953125 C 53.285156 -19.953125 57.425781 -21.710938 60.1875 -25.234375 C 62.945312 -28.765625 64.328125 -33.425781 64.328125 -39.21875 L 64.328125 -94.984375 L 88.078125 -94.984375 L 88.078125 -37.859375 C 88.078125 -30.078125 86.445312 -23.203125 83.1875 -17.234375 C 79.925781 -11.265625 75.265625 -6.601562 69.203125 -3.25 C 63.140625 0.0898438 55.992188 1.765625 47.765625 1.765625 Z M 47.765625 1.765625 "/></g></g></g><g fill="#436ceb" fill-opacity="1"><g transform="translate(1124.166355, 770.812426)"><g><path d="M 96.34375 0 L 70.96875 0 L 61.875 -26.46875 L 33.921875 -26.46875 L 24.828125 0 L 0 0 L 35.828125 -94.984375 L 60.53125 -94.984375 Z M 47.90625 -67.3125 L 34.875 -29.171875 L 60.9375 -29.171875 Z M 47.90625 -67.3125 "/></g></g></g><g fill="#436ceb" fill-opacity="1"><g transform="translate(1216.571941, 770.812426)"><g><path d="M 63.921875 0 L 39.078125 -37.3125 L 32.5625 -37.3125 L 32.5625 0 L 8.828125 0 L 8.828125 -94.984375 L 43.96875 -94.984375 C 51.113281 -94.984375 57.488281 -93.671875 63.09375 -91.046875 C 68.707031 -88.429688 73.070312 -84.835938 76.1875 -80.265625 C 79.3125 -75.703125 80.875 -70.613281 80.875 -65 C 80.875 -59.394531 79.3125 -54.394531 76.1875 -50 C 73.070312 -45.613281 68.710938 -42.203125 63.109375 -39.765625 L 92.140625 0 Z M 32.5625 -74.640625 L 32.5625 -40.03125 L 39.359375 -40.03125 C 44.421875 -40.03125 48.578125 -41.679688 51.828125 -44.984375 C 55.085938 -48.285156 56.71875 -52.425781 56.71875 -57.40625 C 56.71875 -62.289062 55.085938 -66.382812 51.828125 -69.6875 C 48.578125 -72.988281 44.421875 -74.640625 39.359375 -74.640625 Z M 32.5625 -74.640625 "/></g></g></g><g fill="#436ceb" fill-opacity="1"><g transform="translate(1302.057285, 770.812426)"><g><path d="M 8.828125 0 L 8.828125 -94.984375 L 42.75 -94.984375 C 53.425781 -94.984375 62.765625 -93.015625 70.765625 -89.078125 C 78.773438 -85.148438 84.972656 -79.585938 89.359375 -72.390625 C 93.742188 -65.203125 95.9375 -56.90625 95.9375 -47.5 C 95.9375 -38.09375 93.742188 -29.789062 89.359375 -22.59375 C 84.972656 -15.40625 78.773438 -9.84375 70.765625 -5.90625 C 62.765625 -1.96875 53.425781 0 42.75 0 Z M 42.203125 -21.03125 C 51.335938 -21.03125 58.550781 -23.425781 63.84375 -28.21875 C 69.132812 -33.019531 71.78125 -39.445312 71.78125 -47.5 C 71.78125 -55.550781 69.132812 -61.972656 63.84375 -66.765625 C 58.550781 -71.554688 51.335938 -73.953125 42.203125 -73.953125 L 32.5625 -73.953125 L 32.5625 -21.03125 Z M 42.203125 -21.03125 "/></g></g></g></svg>