<svg id="visual" viewBox="0 0 1600 900" width="1600" height="900" xmlns="http://www.w3.org/2000/svg" xmlns:xlink="http://www.w3.org/1999/xlink" version="1.1"><path d="M0 100L24.2 103C48.3 106 96.7 112 145.2 106C193.7 100 242.3 82 290.8 71.5C339.3 61 387.7 58 436.2 59.5C484.7 61 533.3 67 581.8 73C630.3 79 678.7 85 727.2 83.5C775.7 82 824.3 73 872.8 82C921.3 91 969.7 118 1018.2 127C1066.7 136 1115.3 127 1163.8 127C1212.3 127 1260.7 136 1309.2 133C1357.7 130 1406.3 115 1454.8 100C1503.3 85 1551.7 70 1575.8 62.5L1600 55L1600 0L1575.8 0C1551.7 0 1503.3 0 1454.8 0C1406.3 0 1357.7 0 1309.2 0C1260.7 0 1212.3 0 1163.8 0C1115.3 0 1066.7 0 1018.2 0C969.7 0 921.3 0 872.8 0C824.3 0 775.7 0 727.2 0C678.7 0 630.3 0 581.8 0C533.3 0 484.7 0 436.2 0C387.7 0 339.3 0 290.8 0C242.3 0 193.7 0 145.2 0C96.7 0 48.3 0 24.2 0L0 0Z" fill="#6198ff"></path><path d="M0 280L24.2 289C48.3 298 96.7 316 145.2 322C193.7 328 242.3 322 290.8 310C339.3 298 387.7 280 436.2 280C484.7 280 533.3 298 581.8 301C630.3 304 678.7 292 727.2 268C775.7 244 824.3 208 872.8 217C921.3 226 969.7 280 1018.2 292C1066.7 304 1115.3 274 1163.8 263.5C1212.3 253 1260.7 262 1309.2 268C1357.7 274 1406.3 277 1454.8 286C1503.3 295 1551.7 310 1575.8 317.5L1600 325L1600 53L1575.8 60.5C1551.7 68 1503.3 83 1454.8 98C1406.3 113 1357.7 128 1309.2 131C1260.7 134 1212.3 125 1163.8 125C1115.3 125 1066.7 134 1018.2 125C969.7 116 921.3 89 872.8 80C824.3 71 775.7 80 727.2 81.5C678.7 83 630.3 77 581.8 71C533.3 65 484.7 59 436.2 57.5C387.7 56 339.3 59 290.8 69.5C242.3 80 193.7 98 145.2 104C96.7 110 48.3 104 24.2 101L0 98Z" fill="#3c80ff"></path><path d="M0 442L24.2 448C48.3 454 96.7 466 145.2 499C193.7 532 242.3 586 290.8 596.5C339.3 607 387.7 574 436.2 541C484.7 508 533.3 475 581.8 457C630.3 439 678.7 436 727.2 455.5C775.7 475 824.3 517 872.8 524.5C921.3 532 969.7 505 1018.2 496C1066.7 487 1115.3 496 1163.8 514C1212.3 532 1260.7 559 1309.2 572.5C1357.7 586 1406.3 586 1454.8 572.5C1503.3 559 1551.7 532 1575.8 518.5L1600 505L1600 323L1575.8 315.5C1551.7 308 1503.3 293 1454.8 284C1406.3 275 1357.7 272 1309.2 266C1260.7 260 1212.3 251 1163.8 261.5C1115.3 272 1066.7 302 1018.2 290C969.7 278 921.3 224 872.8 215C824.3 206 775.7 242 727.2 266C678.7 290 630.3 302 581.8 299C533.3 296 484.7 278 436.2 278C387.7 278 339.3 296 290.8 308C242.3 320 193.7 326 145.2 320C96.7 314 48.3 296 24.2 287L0 278Z" fill="#0066ff"></path><path d="M0 622L24.2 614.5C48.3 607 96.7 592 145.2 613C193.7 634 242.3 691 290.8 706C339.3 721 387.7 694 436.2 665.5C484.7 637 533.3 607 581.8 581.5C630.3 556 678.7 535 727.2 557.5C775.7 580 824.3 646 872.8 668.5C921.3 691 969.7 670 1018.2 662.5C1066.7 655 1115.3 661 1163.8 671.5C1212.3 682 1260.7 697 1309.2 712C1357.7 727 1406.3 742 1454.8 719.5C1503.3 697 1551.7 637 1575.8 607L1600 577L1600 503L1575.8 516.5C1551.7 530 1503.3 557 1454.8 570.5C1406.3 584 1357.7 584 1309.2 570.5C1260.7 557 1212.3 530 1163.8 512C1115.3 494 1066.7 485 1018.2 494C969.7 503 921.3 530 872.8 522.5C824.3 515 775.7 473 727.2 453.5C678.7 434 630.3 437 581.8 455C533.3 473 484.7 506 436.2 539C387.7 572 339.3 605 290.8 594.5C242.3 584 193.7 530 145.2 497C96.7 464 48.3 452 24.2 446L0 440Z" fill="#0059dd"></path><path d="M0 901L24.2 901C48.3 901 96.7 901 145.2 901C193.7 901 242.3 901 290.8 901C339.3 901 387.7 901 436.2 901C484.7 901 533.3 901 581.8 901C630.3 901 678.7 901 727.2 901C775.7 901 824.3 901 872.8 901C921.3 901 969.7 901 1018.2 901C1066.7 901 1115.3 901 1163.8 901C1212.3 901 1260.7 901 1309.2 901C1357.7 901 1406.3 901 1454.8 901C1503.3 901 1551.7 901 1575.8 901L1600 901L1600 575L1575.8 605C1551.7 635 1503.3 695 1454.8 717.5C1406.3 740 1357.7 725 1309.2 710C1260.7 695 1212.3 680 1163.8 669.5C1115.3 659 1066.7 653 1018.2 660.5C969.7 668 921.3 689 872.8 666.5C824.3 644 775.7 578 727.2 555.5C678.7 533 630.3 554 581.8 579.5C533.3 605 484.7 635 436.2 663.5C387.7 692 339.3 719 290.8 704C242.3 689 193.7 632 145.2 611C96.7 590 48.3 605 24.2 612.5L0 620Z" fill="#004cbb"></path></svg>